<svg width="100" height="100" viewBox="0 0 100 100" fill="none" xmlns="http://www.w3.org/2000/svg">
<g clip-path="url(#clip0)">
<path d="M99.9971 49.2541C99.9971 49.1631 99.9971 49.0736 99.9971 48.9826C99.9971 48.9378 99.9971 48.8932 99.9971 48.8484C99.3739 21.8112 77.1884 0 50 0C22.8118 0 0.626493 21.8112 0.0089495 48.8469C0.0089495 48.8916 0.0089495 48.9364 0.0089495 48.9811C0.0089495 49.0721 0.0089495 49.1616 0.0089495 49.2526C0.00298293 49.5001 0 49.7487 0 49.9983C0 50.2479 0.00298293 50.4965 0.0089495 50.7441C0.0089495 50.835 0.0089495 50.9245 0.0089495 51.0155C0.0089495 51.0602 0.0089495 51.1049 0.0089495 51.1497C0.626493 78.1884 22.8118 100 50 100C77.1884 100 99.3739 78.1884 99.9913 51.1527C99.9913 51.108 99.9913 51.0632 99.9913 51.0185C99.9913 50.9275 99.9913 50.838 99.9913 50.7471C99.9971 50.4995 100 50.2509 100 50.0013C100 49.7517 99.999 49.5026 99.9971 49.2541ZM49.8509 49.9998C49.8561 54.8593 48.4231 59.6117 45.7325 63.6586C43.4604 59.4644 42.2704 54.7698 42.2704 49.9998C42.2704 45.2298 43.4604 40.5352 45.7325 36.3409C48.4231 40.3878 49.8561 45.1403 49.8509 49.9998ZM45.8936 36.0516C47.0303 34.0175 48.4091 32.1285 50 30.4259C51.59 32.1286 52.9679 34.0177 54.1037 36.0516C51.8391 39.4162 50.4305 43.2826 50 47.3152C49.5697 43.2826 48.1611 39.4162 45.8965 36.0516H45.8936ZM50 52.6844C50.4307 56.7165 51.8393 60.5825 54.1037 63.9464C52.968 65.981 51.5901 67.8706 50 69.5738C48.4102 67.8709 47.0323 65.982 45.8965 63.948C48.1611 60.5834 49.5697 56.717 50 52.6844ZM50.1492 49.9998C50.1441 45.1403 51.5771 40.3878 54.2677 36.3409C56.5398 40.5352 57.7298 45.2298 57.7298 49.9998C57.7298 54.7698 56.5398 59.4644 54.2677 63.6586C51.5771 59.6117 50.1441 54.8593 50.1492 49.9998ZM50.2015 30.2111C52.2172 28.0955 54.5417 26.2974 57.0959 24.8776C58.5283 26.1833 59.8471 27.6083 61.0383 29.1372C58.3882 30.908 56.0971 33.164 54.2856 35.7861C53.1495 33.7721 51.7775 31.9006 50.1985 30.2111H50.2015ZM50 29.9978C47.991 27.891 45.6783 26.0963 43.1385 24.6733C45.2224 22.8114 47.5268 21.212 50 19.9111C52.4734 21.212 54.7778 22.8114 56.8616 24.6733C54.3219 26.0963 52.0091 27.891 50 29.9978ZM49.8017 30.2111C48.2217 31.9004 46.8486 33.7719 45.7116 35.7861C43.901 33.1642 41.6108 30.9083 38.9618 29.1372C40.1549 27.608 41.4758 26.183 42.9102 24.8776C45.4634 26.2976 47.7869 28.0957 49.8017 30.2111ZM45.5535 36.0665C43.2097 40.3367 41.9809 45.1288 41.9809 49.9998C41.9809 54.8707 43.2097 59.663 45.5535 63.933C43.7464 66.5792 41.4473 68.8532 38.7814 70.6312C34.2389 64.7125 31.7766 57.4604 31.7766 49.9998C31.7766 42.5392 34.2389 35.2871 38.7814 29.3684C41.4473 31.1464 43.7464 33.4203 45.5535 36.0665ZM45.7116 64.2134C46.8486 66.2277 48.2217 68.0992 49.8017 69.7885C47.786 71.9041 45.4614 73.7023 42.9073 75.122C41.4738 73.8165 40.1539 72.3915 38.9618 70.8624C41.6108 69.0913 43.901 66.8354 45.7116 64.2134ZM50 70.0018C52.0091 72.1087 54.3219 73.9033 56.8616 75.3264C54.7778 77.1883 52.4734 78.7876 50 80.0886C47.5268 78.7876 45.2224 77.1883 43.1385 75.3264C45.6783 73.9033 47.991 72.1087 50 70.0018ZM50.1985 69.7885C51.7785 68.0992 53.1516 66.2277 54.2886 64.2134C56.0992 66.8354 58.3893 69.0913 61.0383 70.8624C59.8453 72.3916 58.5244 73.8166 57.09 75.122C54.5368 73.702 52.2133 71.9039 50.1985 69.7885ZM54.4467 63.933C56.7905 59.663 58.0192 54.8707 58.0192 49.9998C58.0192 45.1288 56.7905 40.3367 54.4467 36.0665C56.2538 33.4203 58.5529 31.1464 61.2188 29.3684C65.7613 35.2871 68.2236 42.5392 68.2236 49.9998C68.2236 57.4604 65.7613 64.7125 61.2188 70.6312C58.5529 68.8532 56.2538 66.5792 54.4467 63.933ZM57.3614 24.7299C60.2235 23.1788 63.3304 22.1294 66.5469 21.6277C67.7885 22.812 68.9515 24.0759 70.0285 25.4116C66.9141 26.0334 63.9473 27.2442 61.2874 28.9791C60.1 27.4553 58.7867 26.0339 57.3614 24.7299ZM57.1317 24.5227C55.0605 22.6616 52.7709 21.059 50.3133 19.7499C53.3371 18.2009 56.5778 17.1183 59.9255 16.5388C62.2014 17.9337 64.3299 19.5557 66.2785 21.3801C63.0741 21.9043 59.9815 22.9669 57.1317 24.5227ZM50 19.5815C46.9984 18.0215 43.7808 16.9181 40.4535 16.3076C43.439 14.524 46.6496 13.1476 50 12.2151C53.3506 13.1476 56.5612 14.524 59.5466 16.3076C56.2193 16.9181 53.0018 18.0215 50 19.5815ZM49.6869 19.7469C47.2292 21.056 44.9397 22.6586 42.8685 24.5197C40.0188 22.9629 36.9262 21.8994 33.7217 21.3742C35.6703 19.5498 37.7988 17.9277 40.0746 16.5328C43.4225 17.1133 46.6632 18.197 49.6869 19.7469ZM42.6388 24.7299C41.2135 26.0339 39.9002 27.4553 38.7128 28.9791C36.0528 27.2442 33.086 26.0334 29.9717 25.4116C31.0487 24.0759 32.2116 22.812 33.4532 21.6277C36.6698 22.1294 39.7767 23.1788 42.6388 24.7299ZM38.5353 29.2044C33.9624 35.1704 31.4841 42.4773 31.4841 49.9939C31.4841 57.5104 33.9624 64.8174 38.5353 70.7834C35.867 72.5185 32.8881 73.7209 29.7629 74.3241C24.2696 67.4039 21.2798 58.8288 21.2798 49.9939C21.2798 41.1588 24.2696 32.5838 29.7629 25.6636C32.8885 26.2686 35.8675 27.4731 38.5353 29.2103V29.2044ZM38.7128 71.0145C39.9002 72.5383 41.2135 73.9597 42.6388 75.2637C39.7767 76.8149 36.6698 77.8641 33.4532 78.366C32.2116 77.1817 31.0487 75.9178 29.9717 74.5821C33.0856 73.9622 36.0524 72.7532 38.7128 71.0205V71.0145ZM42.8685 75.471C44.9397 77.3321 47.2292 78.9346 49.6869 80.2437C46.6631 81.7927 43.4224 82.8754 40.0746 83.4548C37.7988 82.0599 35.6703 80.4378 33.7217 78.6136C36.9257 78.0911 40.0182 77.0307 42.8685 75.477V75.471ZM50 80.4256C53.0018 81.9856 56.2193 83.089 59.5466 83.6994C56.5612 85.483 53.3506 86.8595 50 87.792C46.6496 86.8595 43.439 85.483 40.4535 83.6994C43.7808 83.089 46.9984 81.9856 50 80.4256ZM50.3133 80.2601C52.7709 78.951 55.0605 77.3485 57.1317 75.4874C59.9814 77.0442 63.0739 78.1077 66.2785 78.6329C64.3299 80.4573 62.2014 82.0794 59.9255 83.4742C56.5772 82.8914 53.3365 81.8053 50.3133 80.2526V80.2601ZM57.3614 75.2772C58.7867 73.9731 60.1 72.5518 61.2874 71.028C63.9473 72.7629 66.9141 73.9737 70.0285 74.5955C68.9515 75.9312 67.7885 77.1951 66.5469 78.3794C63.3299 77.8753 60.223 76.8234 57.3614 75.2697V75.2772ZM61.4649 70.8027C66.0378 64.8367 68.5161 57.5298 68.5161 50.0132C68.5161 42.4966 66.0378 35.1897 61.4649 29.2237C64.1332 27.4886 67.1121 26.2862 70.2373 25.683C75.7306 32.6032 78.7204 41.1782 78.7204 50.0132C78.7204 58.8483 75.7306 67.4233 70.2373 74.3434C67.1111 73.7361 64.1321 72.5292 61.4649 70.7893V70.8027ZM66.9109 21.5844C71.233 20.9651 75.6393 21.338 79.7958 22.6747C80.6341 23.7466 81.4237 24.8568 82.1645 26.0051C78.3366 24.8471 74.286 24.6271 70.3551 25.3638C69.2893 24.0281 68.1389 22.7623 66.9109 21.574V21.5844ZM70.9936 21.0013C69.5371 21.0011 68.0825 21.1103 66.6424 21.3279C64.7151 19.5044 62.6105 17.8781 60.3596 16.4732C65.1769 15.702 70.1037 15.9751 74.8062 17.2741C76.4856 18.8145 78.045 20.4807 79.4706 22.2586C76.7237 21.4169 73.8666 20.9895 70.9936 20.9909V21.0013ZM65.7459 15.7543C63.8187 15.7508 61.8946 15.91 59.9941 16.2301C57.0434 14.4338 53.8686 13.0341 50.552 12.0674C55.7701 10.7043 61.2127 10.4266 66.5424 11.2516C69.333 12.8272 71.9461 14.6983 74.3363 16.8327C71.5307 16.1068 68.644 15.741 65.7459 15.7439V15.7543ZM60.4969 10.5059C56.9505 10.5004 53.4197 10.9741 50 11.9138C44.855 10.498 39.4765 10.1378 34.1886 10.8549C39.0952 8.2025 44.4606 6.50503 50 5.8525C55.5397 6.5055 60.9051 8.20347 65.8116 10.8564C64.0501 10.6171 62.2745 10.4965 60.4969 10.4954V10.5059ZM39.5033 10.8041C42.8619 10.8026 46.2068 11.2327 49.4557 12.0838C46.139 13.0505 42.9643 14.4502 40.0135 16.2465C35.2441 15.4336 30.3567 15.6369 25.6712 16.8431C28.0616 14.7087 30.6746 12.8376 33.4651 11.2621C35.4627 10.949 37.4815 10.7905 39.5033 10.7877V10.8041ZM34.2542 16.0511C36.0582 16.0511 37.8593 16.1943 39.6406 16.4792C37.3897 17.884 35.285 19.5104 33.3578 21.3339C29.0652 20.685 24.682 21.0055 20.5296 22.272C21.9549 20.4916 23.5143 18.8228 25.1939 17.2801C28.1439 16.4574 31.1917 16.0385 34.2542 16.0347V16.0511ZM29.0066 21.2995C30.3728 21.3021 31.7372 21.4018 33.0893 21.5979C31.8617 22.7828 30.7112 24.0452 29.6451 25.3772C25.7141 24.6405 21.6636 24.8605 17.8356 26.0186C18.5755 24.8711 19.3651 23.761 20.2044 22.6881C23.0469 21.7624 26.0171 21.2883 29.0066 21.2831V21.2995ZM17.4061 26.1364C14.0217 27.2324 10.9077 29.0321 8.26867 31.4173C5.62965 33.8026 3.5254 36.7193 2.09427 39.9757C3.5879 35.9959 5.94226 32.3951 8.9891 29.4306C12.0359 26.4662 15.7001 24.2112 19.7196 22.8268C18.8992 23.8918 18.128 24.9949 17.4061 26.1364ZM17.5985 26.3795C21.4239 25.1674 25.4872 24.9063 29.4363 25.6189C23.9647 32.5699 20.9898 41.1586 20.9898 50.0043C20.9898 58.85 23.9647 67.4387 29.4363 74.3897C25.4872 75.1023 21.4239 74.8412 17.5985 73.629C13.1457 66.5524 10.7832 58.362 10.7832 50.0013C10.7832 41.6406 13.1457 33.4501 17.5985 26.3736V26.3795ZM19.7196 77.1728C15.7009 75.7892 12.0372 73.5354 8.99039 70.5723C5.94359 67.6091 3.58882 64.0098 2.09427 60.0313C3.5254 63.2879 5.62965 66.2045 8.26867 68.5898C10.9077 70.975 14.0217 72.7747 17.4061 73.8706C18.127 75.0071 18.8982 76.1079 19.7196 77.1728ZM17.8356 74.0123C21.6636 75.1705 25.7141 75.3904 29.6451 74.6537C30.7112 75.9857 31.8617 77.2481 33.0893 78.433C28.7672 79.0524 24.3608 78.6796 20.2044 77.3428C19.3661 76.2659 18.5765 75.1558 17.8356 74.0123ZM29.0066 79.0162C30.4631 79.0165 31.9176 78.9073 33.3578 78.6896C35.285 80.5131 37.3897 82.1394 39.6406 83.5443C34.8233 84.3155 29.8965 84.0423 25.1939 82.7434C23.5138 81.1974 21.9545 79.525 20.5296 77.741C23.2765 78.5828 26.1336 79.0101 29.0066 79.0088V79.0162ZM34.2542 84.2631C36.1843 84.2636 38.1109 84.1011 40.0135 83.777C42.9643 85.5733 46.139 86.9729 49.4557 87.9397C44.2374 89.3028 38.795 89.5805 33.4651 88.7555C30.6746 87.1799 28.0616 85.3088 25.6712 83.1744C28.4748 83.8971 31.359 84.2604 34.2542 84.2558V84.2631ZM39.5033 89.5117C43.0505 89.5112 46.5814 89.0316 50 88.0858C55.1452 89.5016 60.5236 89.8618 65.8116 89.1448C60.905 91.7971 55.5396 93.4946 50 94.1471C44.4605 93.4941 39.0951 91.7961 34.1886 89.1432C35.9501 89.3826 37.7257 89.5031 39.5033 89.5042V89.5117ZM60.4969 89.2133C57.1383 89.215 53.7934 88.7849 50.5445 87.9336C53.8638 86.9671 57.0411 85.567 59.9941 83.7695C64.7636 84.5825 69.651 84.3791 74.3363 83.1729C71.9461 85.3072 69.333 87.1784 66.5424 88.754C64.542 89.0619 62.5209 89.215 60.4969 89.2119V89.2133ZM65.7459 83.9663C63.942 83.9663 62.1409 83.8233 60.3596 83.5383C62.6105 82.1334 64.7151 80.5071 66.6424 78.6836C70.9349 79.3325 75.3182 79.012 79.4706 77.7455C78.0453 79.5258 76.4859 81.1947 74.8062 82.7374C71.8555 83.554 68.8077 83.9669 65.7459 83.9649V83.9663ZM70.9936 78.7179C69.6275 78.7179 68.2632 78.6207 66.9109 78.4271C68.1385 77.2422 69.289 75.9798 70.3551 74.6477C74.286 75.3845 78.3366 75.1645 82.1645 74.0064C81.4247 75.1528 80.6351 76.263 79.7958 77.3368C76.9519 78.254 73.9817 78.7195 70.9936 78.7164V78.7179ZM82.5941 73.8722C85.9784 72.7763 89.0925 70.9764 91.7315 68.5912C94.3705 66.206 96.4748 63.2893 97.9061 60.0329C96.4119 64.0102 94.0583 67.6088 91.0128 70.5716C87.9674 73.5344 84.3053 75.7885 80.288 77.1728C81.1044 76.1079 81.8732 75.0071 82.5941 73.8706V73.8722ZM82.4017 73.629C78.5763 74.8412 74.513 75.1023 70.5639 74.3897C76.0355 67.4387 79.0103 58.85 79.0103 50.0043C79.0103 41.1586 76.0355 32.5699 70.5639 25.6189C74.513 24.9063 78.5763 25.1674 82.4017 26.3795C86.8545 33.4561 89.217 41.6466 89.217 50.0073C89.217 58.3679 86.8545 66.5585 82.4017 73.6351V73.629ZM80.288 22.8268C84.3054 24.2113 87.9676 26.4656 91.0131 29.4287C94.0585 32.3918 96.4121 35.9906 97.9061 39.9682C96.4739 36.7132 94.3693 33.7979 91.7304 31.414C89.0913 29.0301 85.9777 27.2315 82.5941 26.1364C81.8732 24.9949 81.1044 23.8918 80.288 22.8268ZM79.9718 22.4152C78.5831 20.6465 77.0639 18.9843 75.4268 17.4427C80.7357 19.0338 85.5769 21.8943 89.5317 25.7768C93.4864 29.6593 96.4354 34.4469 98.1236 39.7251C96.5775 35.6707 94.1455 32.0128 91.0051 29.0181C87.8648 26.0234 84.0953 23.7675 79.9718 22.4152ZM74.9524 17.0012C72.624 14.8691 70.0777 12.9879 67.3554 11.3888C81.7305 13.9332 93.4235 24.3362 97.8285 37.9816C95.9257 32.9371 92.8642 28.4102 88.8906 24.7659C84.9171 21.1216 80.1427 18.4619 74.9524 17.0012ZM66.6319 10.9727C61.8714 8.29095 56.6568 6.51066 51.2501 5.72126C52.5672 5.60342 53.9008 5.53929 55.2492 5.53929C74.9659 5.53929 91.7245 18.4389 97.5314 36.2396C92.6225 23.07 80.8773 13.2024 66.6319 10.9727ZM50 0.290837C72.0004 0.290837 90.7057 14.6566 97.2363 34.4975C90.916 17.4382 74.4795 5.25592 55.2492 5.25592C53.4952 5.25263 51.7424 5.35223 50 5.55421C48.2578 5.35223 46.505 5.25263 44.751 5.25592C25.5207 5.25592 9.08415 17.4456 2.76402 34.505C9.29447 14.6522 27.9998 0.290837 50 0.290837ZM44.751 5.53929C46.0935 5.53929 47.4359 5.60342 48.7501 5.72126C43.3434 6.51066 38.1288 8.29095 33.3681 10.9727C19.1229 13.2024 7.3777 23.07 2.46868 36.2396C8.27716 18.4389 25.0343 5.53929 44.751 5.53929ZM32.6447 11.3888C29.9225 12.9879 27.3762 14.8691 25.0477 17.0012C19.8575 18.4619 15.0831 21.1216 11.1095 24.7659C7.13602 28.4102 4.07449 32.9371 2.17184 37.9816C6.57669 24.3362 18.2697 13.9332 32.6447 11.3888ZM24.5734 17.4427C22.9363 18.9843 21.4171 20.6465 20.0284 22.4152C15.9049 23.7675 12.1354 26.0234 8.99505 29.0181C5.85469 32.0128 3.42267 35.6707 1.87649 39.7251C3.56473 34.4469 6.51378 29.6593 10.4685 25.7768C14.4232 21.8943 19.2644 19.0338 24.5734 17.4427ZM17.1629 26.5197C12.8012 33.575 10.4909 41.7055 10.4909 49.9998C10.4909 58.2942 12.8012 66.4246 17.1629 73.4799C7.36278 70.1718 0.284905 60.8995 0.284905 49.9998C0.284905 39.1002 7.36278 29.8278 17.1629 26.5197ZM20.0284 77.5919C21.4171 79.3605 22.9363 81.0227 24.5734 82.5644C19.2644 80.9732 14.4232 78.1127 10.4685 74.2302C6.51378 70.3478 3.56473 65.5602 1.87649 60.282C3.42267 64.3363 5.85469 67.9943 8.99505 70.989C12.1354 73.9837 15.9049 76.2395 20.0284 77.5919ZM25.0477 83.0059C27.3762 85.138 29.9225 87.0191 32.6447 88.6182C18.2697 86.0738 6.57669 75.6708 2.17184 62.0255C4.07547 67.0685 7.13743 71.5939 11.1109 75.2369C15.0844 78.8798 19.8582 81.5384 25.0477 82.9984V83.0059ZM33.3681 89.0343C38.1288 91.7162 43.3434 93.4964 48.7501 94.2858C47.4329 94.4036 46.0994 94.4678 44.751 94.4678C25.0343 94.4678 8.27716 81.5681 2.46868 63.7675C7.3777 76.9296 19.1229 86.7971 33.3681 89.027V89.0343ZM50 99.7088C27.9998 99.7088 9.29447 85.343 2.76402 65.502C9.08415 82.5615 25.5207 94.7512 44.751 94.7512C46.5052 94.752 48.2579 94.6498 50 94.4454C51.7422 94.6509 53.495 94.754 55.2492 94.7541C74.4795 94.7541 90.916 82.5644 97.2363 65.5051C90.7057 85.3475 72.0004 99.7088 50 99.7088ZM55.2492 94.4603C53.9067 94.4603 52.5643 94.3962 51.2501 94.2784C56.6568 93.489 61.8714 91.7087 66.6319 89.027C80.8773 86.7971 92.6225 76.9296 97.5314 63.7601C91.7245 81.5607 74.9659 94.4603 55.2492 94.4603ZM67.3554 88.6108C70.0777 87.0117 72.624 85.1305 74.9524 82.9984C80.1427 81.5377 84.9171 78.878 88.8906 75.2337C92.8642 71.5894 95.9257 67.0625 97.8285 62.018C93.4235 75.6634 81.7305 86.0664 67.3554 88.6108ZM75.4268 82.5569C77.0636 81.0177 78.5828 79.358 79.9718 77.5919C84.0961 76.2387 87.866 73.9818 91.0064 70.9858C94.1468 67.9896 96.5784 64.3302 98.1236 60.2745C96.4354 65.5528 93.4864 70.3403 89.5317 74.2228C85.5769 78.1052 80.7357 80.9659 75.4268 82.5569ZM82.8373 73.4799C87.199 66.4246 89.5093 58.2942 89.5093 49.9998C89.5093 41.7055 87.199 33.575 82.8373 26.5197C92.6374 29.8278 99.7156 39.1002 99.7156 49.9998C99.7156 60.8995 92.6374 70.1718 82.8373 73.4799Z" fill="#F80000"/>
<path d="M50.7459 99.9971C50.8369 99.9971 50.9264 99.9971 51.0174 99.9971C51.0622 99.9971 51.1068 99.9971 51.1516 99.9971C78.1888 99.3739 100 77.1884 100 50C100 22.8118 78.1888 0.626492 51.1531 0.00894737C51.1084 0.00894737 51.0636 0.00894736 51.0189 0.00894736C50.9279 0.00894736 50.8384 0.00894735 50.7474 0.00894735C50.4999 0.00298077 50.2513 -2.17458e-06 50.0017 -2.1855e-06C49.7521 -2.1964e-06 49.5035 0.00298072 49.2559 0.00894729C49.165 0.00894728 49.0755 0.00894728 48.9845 0.00894727C48.9398 0.00894727 48.8951 0.00894727 48.8503 0.00894727C21.8116 0.626489 -5.30879e-07 22.8118 -1.71931e-06 50C-2.90775e-06 77.1884 21.8116 99.3739 48.8473 99.9913C48.892 99.9913 48.9368 99.9913 48.9815 99.9913C49.0725 99.9913 49.162 99.9913 49.2529 99.9913C49.5005 99.9971 49.7491 100 49.9987 100C50.2483 100 50.4974 99.999 50.7459 99.9971ZM50.0002 49.8509C45.1407 49.8561 40.3883 48.4231 36.3414 45.7325C40.5356 43.4604 45.2302 42.2704 50.0002 42.2704C54.7702 42.2704 59.4648 43.4604 63.6591 45.7325C59.6122 48.4231 54.8597 49.8561 50.0002 49.8509ZM63.9484 45.8936C65.9825 47.0303 67.8715 48.4091 69.5741 50C67.8713 51.59 65.9823 52.9679 63.9484 54.1037C60.5838 51.8391 56.7174 50.4305 52.6848 50C56.7174 49.5697 60.5838 48.1611 63.9484 45.8965L63.9484 45.8936ZM47.3156 50C43.2835 50.4307 39.4175 51.8393 36.0536 54.1037C34.0189 52.968 32.1294 51.5901 30.4262 50C32.1291 48.4102 34.018 47.0323 36.052 45.8965C39.4166 48.1611 43.283 49.5697 47.3156 50ZM50.0002 50.1492C54.8597 50.1441 59.6122 51.5771 63.6591 54.2677C59.4648 56.5398 54.7702 57.7298 50.0002 57.7298C45.2302 57.7298 40.5356 56.5398 36.3414 54.2677C40.3883 51.5771 45.1407 50.1441 50.0002 50.1492ZM69.7889 50.2015C71.9045 52.2172 73.7026 54.5417 75.1224 57.0959C73.8167 58.5283 72.3917 59.8471 70.8628 61.0383C69.092 58.3882 66.836 56.0971 64.2139 54.2856C66.2279 53.1495 68.0994 51.7775 69.7889 50.1985L69.7889 50.2015ZM70.0022 50C72.109 47.991 73.9037 45.6783 75.3267 43.1385C77.1886 45.2223 78.788 47.5268 80.0889 50C78.788 52.4734 77.1886 54.7778 75.3267 56.8616C73.9037 54.3219 72.109 52.0091 70.0022 50ZM69.7889 49.8017C68.0996 48.2216 66.2281 46.8486 64.2139 45.7116C66.8358 43.901 69.0917 41.6108 70.8628 38.9618C72.392 40.1549 73.817 41.4758 75.1224 42.9102C73.7024 45.4634 71.9043 47.7869 69.7889 49.8017ZM63.9334 45.5535C59.6633 43.2097 54.8712 41.9809 50.0002 41.9809C45.1292 41.9809 40.337 43.2097 36.067 45.5535C33.4208 43.7464 31.1468 41.4473 29.3688 38.7814C35.2875 34.2389 42.5396 31.7766 50.0002 31.7766C57.4608 31.7766 64.7129 34.2389 70.6316 38.7814C68.8536 41.4473 66.5796 43.7464 63.9334 45.5535ZM35.7866 45.7116C33.7723 46.8486 31.9008 48.2216 30.2115 49.8017C28.0959 47.786 26.2977 45.4614 24.878 42.9073C26.1835 41.4738 27.6085 40.1539 29.1376 38.9618C30.9087 41.6108 33.1646 43.901 35.7866 45.7116ZM29.9982 50C27.8913 52.0091 26.0967 54.3219 24.6736 56.8616C22.8117 54.7778 21.2124 52.4734 19.9114 50C21.2124 47.5268 22.8117 45.2223 24.6736 43.1385C26.0967 45.6783 27.8913 47.991 29.9982 50ZM30.2115 50.1985C31.9008 51.7785 33.7723 53.1516 35.7866 54.2886C33.1646 56.0992 30.9087 58.3893 29.1376 61.0383C27.6084 59.8453 26.1834 58.5244 24.878 57.0899C26.298 54.5368 28.0961 52.2133 30.2115 50.1985ZM36.067 54.4467C40.337 56.7905 45.1292 58.0192 50.0002 58.0192C54.8712 58.0192 59.6633 56.7905 63.9334 54.4467C66.5796 56.2538 68.8536 58.5529 70.6316 61.2188C64.7129 65.7613 57.4608 68.2236 50.0002 68.2236C42.5396 68.2236 35.2875 65.7613 29.3688 61.2188C31.1468 58.5529 33.4208 56.2538 36.067 54.4467ZM75.2701 57.3614C76.8212 60.2235 77.8706 63.3304 78.3723 66.5469C77.188 67.7885 75.9241 68.9515 74.5884 70.0285C73.9666 66.9141 72.7558 63.9473 71.0209 61.2874C72.5447 60.1 73.9661 58.7867 75.2701 57.3614ZM75.4773 57.1317C77.3384 55.0605 78.941 52.7709 80.25 50.3133C81.7991 53.3371 82.8817 56.5778 83.4611 59.9255C82.0663 62.2014 80.4443 64.3299 78.6199 66.2785C78.0957 63.0741 77.0331 59.9815 75.4773 57.1317ZM80.4185 50C81.9785 46.9984 83.0819 43.7808 83.6923 40.4535C85.476 43.439 86.8524 46.6496 87.7849 50C86.8524 53.3506 85.476 56.5612 83.6923 59.5466C83.0819 56.2193 81.9785 53.0018 80.4185 50ZM80.2531 49.6869C78.944 47.2292 77.3414 44.9397 75.4803 42.8685C77.0371 40.0188 78.1006 36.9262 78.6258 33.7217C80.4502 35.6703 82.0723 37.7988 83.4672 40.0746C82.8867 43.4225 81.803 46.6632 80.2531 49.6869ZM75.2701 42.6388C73.9661 41.2135 72.5447 39.9002 71.0209 38.7128C72.7558 36.0528 73.9666 33.086 74.5884 29.9717C75.9241 31.0487 77.188 32.2116 78.3723 33.4532C77.8706 36.6698 76.8212 39.7767 75.2701 42.6388ZM70.7956 38.5353C64.8296 33.9624 57.5227 31.4841 50.0061 31.4841C42.4896 31.4841 35.1826 33.9624 29.2166 38.5353C27.4815 35.867 26.2791 32.8881 25.6759 29.7629C32.5961 24.2696 41.1712 21.2798 50.0061 21.2798C58.8412 21.2798 67.4162 24.2696 74.3364 29.7629C73.7314 32.8885 72.5269 35.8675 70.7897 38.5353L70.7956 38.5353ZM28.9855 38.7128C27.4617 39.9002 26.0403 41.2135 24.7363 42.6388C23.1851 39.7767 22.1359 36.6698 21.634 33.4532C22.8183 32.2116 24.0822 31.0487 25.4179 29.9717C26.0378 33.0856 27.2468 36.0524 28.9795 38.7128L28.9855 38.7128ZM24.529 42.8685C22.6679 44.9397 21.0654 47.2292 19.7563 49.6869C18.2073 46.6631 17.1246 43.4224 16.5452 40.0746C17.9401 37.7988 19.5622 35.6703 21.3864 33.7217C21.9089 36.9257 22.9693 40.0182 24.523 42.8685L24.529 42.8685ZM19.5744 50C18.0144 53.0018 16.911 56.2193 16.3006 59.5466C14.517 56.5612 13.1405 53.3506 12.208 50C13.1405 46.6496 14.517 43.439 16.3006 40.4535C16.911 43.7808 18.0144 46.9984 19.5744 50ZM19.7399 50.3133C21.049 52.7709 22.6515 55.0605 24.5126 57.1317C22.9558 59.9814 21.8923 63.0739 21.3671 66.2785C19.5427 64.3299 17.9206 62.2014 16.5258 59.9255C17.1086 56.5772 18.1947 53.3365 19.7474 50.3133L19.7399 50.3133ZM24.7228 57.3614C26.0269 58.7867 27.4482 60.1 28.972 61.2874C27.2371 63.9473 26.0263 66.9141 25.4045 70.0285C24.0688 68.9515 22.8049 67.7885 21.6206 66.5469C22.1247 63.3299 23.1766 60.223 24.7303 57.3614L24.7228 57.3614ZM29.1973 61.4649C35.1633 66.0378 42.4702 68.5161 49.9868 68.5161C57.5034 68.5161 64.8103 66.0378 70.7763 61.4649C72.5114 64.1332 73.7138 67.1121 74.317 70.2373C67.3968 75.7306 58.8218 78.7204 49.9868 78.7204C41.1517 78.7204 32.5767 75.7306 25.6566 70.2373C26.2639 67.1111 27.4708 64.1321 29.2107 61.4649L29.1973 61.4649ZM78.4156 66.9109C79.0349 71.233 78.662 75.6393 77.3253 79.7958C76.2534 80.6341 75.1432 81.4237 73.9949 82.1645C75.1529 78.3366 75.3729 74.286 74.6362 70.3551C75.9718 69.2893 77.2377 68.1389 78.426 66.9109L78.4156 66.9109ZM78.9987 70.9936C78.9989 69.5371 78.8897 68.0825 78.6721 66.6424C80.4956 64.7151 82.1219 62.6105 83.5268 60.3596C84.298 65.1769 84.0249 70.1037 82.7259 74.8062C81.1855 76.4856 79.5193 78.045 77.7414 79.4706C78.5831 76.7237 79.0105 73.8666 79.0091 70.9936L78.9987 70.9936ZM84.2457 65.7459C84.2492 63.8187 84.09 61.8946 83.7699 59.9941C85.5662 57.0434 86.9659 53.8686 87.9326 50.552C89.2957 55.7701 89.5734 61.2127 88.7484 66.5424C87.1728 69.333 85.3017 71.9461 83.1673 74.3363C83.8932 71.5307 84.259 68.644 84.2561 65.7459L84.2457 65.7459ZM89.4941 60.4969C89.4996 56.9505 89.0259 53.4197 88.0862 50C89.502 44.855 89.8622 39.4765 89.1451 34.1886C91.7975 39.0952 93.495 44.4606 94.1475 50C93.4945 55.5397 91.7965 60.9051 89.1436 65.8116C89.3829 64.0501 89.5035 62.2745 89.5046 60.4969L89.4941 60.4969ZM89.1959 39.5033C89.1974 42.8619 88.7673 46.2068 87.9162 49.4557C86.9495 46.139 85.5498 42.9643 83.7535 40.0135C84.5664 35.2441 84.3631 30.3567 83.1569 25.6712C85.2913 28.0616 87.1624 30.6746 88.7379 33.4651C89.051 35.4627 89.2095 37.4815 89.2123 39.5033L89.1959 39.5033ZM83.9489 34.2542C83.9489 36.0582 83.8057 37.8593 83.5208 39.6406C82.116 37.3897 80.4896 35.285 78.6661 33.3578C79.315 29.0652 78.9945 24.682 77.728 20.5296C79.5084 21.9549 81.1772 23.5143 82.7199 25.1939C83.5426 28.1439 83.9615 31.1917 83.9653 34.2542L83.9489 34.2542ZM78.7005 29.0066C78.6979 30.3728 78.5982 31.7372 78.4021 33.0893C77.2172 31.8617 75.9548 30.7112 74.6228 29.6451C75.3595 25.7141 75.1395 21.6636 73.9814 17.8356C75.1289 18.5755 76.239 19.3651 77.3119 20.2044C78.2376 23.0469 78.7117 26.0171 78.7169 29.0066L78.7005 29.0066ZM73.8636 17.4061C72.7676 14.0217 70.9679 10.9077 68.5827 8.26867C66.1974 5.62965 63.2807 3.5254 60.0243 2.09427C64.0041 3.5879 67.6049 5.94226 70.5694 8.9891C73.5338 12.0359 75.7888 15.7001 77.1732 19.7196C76.1082 18.8992 75.0051 18.128 73.8636 17.4061ZM73.6205 17.5985C74.8326 21.4239 75.0937 25.4872 74.3811 29.4363C67.4301 23.9647 58.8414 20.9898 49.9957 20.9898C41.15 20.9898 32.5613 23.9647 25.6103 29.4363C24.8977 25.4872 25.1588 21.4239 26.371 17.5985C33.4476 13.1457 41.638 10.7832 49.9987 10.7832C58.3594 10.7832 66.5499 13.1457 73.6264 17.5985L73.6205 17.5985ZM22.8272 19.7196C24.2107 15.7009 26.4646 12.0372 29.4277 8.99038C32.3909 5.94359 35.9902 3.58882 39.9687 2.09427C36.7121 3.5254 33.7955 5.62965 31.4102 8.26867C29.025 10.9077 27.2253 14.0217 26.1294 17.4061C24.9929 18.127 23.8921 18.8982 22.8272 19.7196ZM25.9877 17.8356C24.8295 21.6636 24.6096 25.7141 25.3463 29.6451C24.0143 30.7112 22.7519 31.8617 21.567 33.0892C20.9476 28.7672 21.3204 24.3608 22.6572 20.2044C23.7341 19.3661 24.8442 18.5765 25.9877 17.8356ZM20.9838 29.0066C20.9835 30.4631 21.0927 31.9176 21.3104 33.3578C19.4869 35.285 17.8606 37.3897 16.4557 39.6406C15.6845 34.8233 15.9577 29.8965 17.2566 25.1939C18.8026 23.5138 20.475 21.9545 22.259 20.5296C21.4172 23.2765 20.9899 26.1336 20.9912 29.0066L20.9838 29.0066ZM15.7369 34.2542C15.7364 36.1843 15.8989 38.1109 16.223 40.0134C14.4267 42.9643 13.0271 46.139 12.0603 49.4557C10.6972 44.2374 10.4195 38.795 11.2445 33.4651C12.8201 30.6746 14.6912 28.0616 16.8256 25.6712C16.1029 28.4748 15.7396 31.359 15.7442 34.2542L15.7369 34.2542ZM10.4883 39.5033C10.4888 43.0505 10.9684 46.5814 11.9142 50C10.4984 55.1452 10.1382 60.5236 10.8552 65.8116C8.2029 60.905 6.50538 55.5396 5.85293 50C6.50587 44.4605 8.20387 39.0951 10.8568 34.1886C10.6174 35.9501 10.4969 37.7257 10.4958 39.5033L10.4883 39.5033ZM10.7867 60.4969C10.785 57.1383 11.2151 53.7934 12.0664 50.5445C13.0329 53.8638 14.433 57.0411 16.2305 59.9941C15.4175 64.7636 15.6209 69.6509 16.827 74.3363C14.6928 71.9461 12.8216 69.333 11.246 66.5424C10.9381 64.542 10.785 62.5209 10.7881 60.4969L10.7867 60.4969ZM16.0337 65.7459C16.0337 63.942 16.1767 62.1409 16.4617 60.3596C17.8666 62.6105 19.4929 64.7151 21.3164 66.6424C20.6675 70.9349 20.988 75.3182 22.2545 79.4706C20.4741 78.0453 18.8053 76.4859 17.2626 74.8062C16.446 71.8555 16.0331 68.8077 16.0351 65.7459L16.0337 65.7459ZM21.2821 70.9936C21.2821 69.6275 21.3793 68.2632 21.5729 66.9109C22.7578 68.1385 24.0202 69.289 25.3523 70.3551C24.6155 74.286 24.8355 78.3366 25.9936 82.1645C24.8472 81.4247 23.737 80.6351 22.6632 79.7958C21.746 76.9519 21.2805 73.9817 21.2836 70.9936L21.2821 70.9936ZM26.1278 82.5941C27.2237 85.9784 29.0236 89.0925 31.4088 91.7315C33.794 94.3705 36.7107 96.4748 39.9671 97.9061C35.9898 96.4119 32.3912 94.0583 29.4284 91.0128C26.4656 87.9674 24.2115 84.3053 22.8272 80.288C23.8921 81.1044 24.9929 81.8732 26.1294 82.5941L26.1278 82.5941ZM26.371 82.4017C25.1588 78.5763 24.8976 74.513 25.6103 70.5639C32.5613 76.0355 41.15 79.0103 49.9957 79.0103C58.8414 79.0103 67.4301 76.0355 74.3811 70.5639C75.0937 74.513 74.8326 78.5763 73.6205 82.4017C66.5439 86.8545 58.3534 89.217 49.9927 89.217C41.6321 89.217 33.4415 86.8545 26.3649 82.4017L26.371 82.4017ZM77.1732 80.288C75.7887 84.3054 73.5344 87.9676 70.5713 91.0131C67.6082 94.0585 64.0094 96.4121 60.0317 97.9061C63.2868 96.4739 66.2021 94.3693 68.586 91.7304C70.9699 89.0913 72.7685 85.9777 73.8636 82.5941C75.0051 81.8732 76.1082 81.1044 77.1732 80.288ZM77.5848 79.9718C79.3535 78.5831 81.0157 77.0639 82.5573 75.4268C80.9662 80.7357 78.1057 85.5769 74.2232 89.5317C70.3407 93.4864 65.5531 96.4354 60.2749 98.1236C64.3293 96.5775 67.9872 94.1455 70.9819 91.0051C73.9766 87.8648 76.2325 84.0953 77.5848 79.9718ZM82.9988 74.9524C85.1309 72.624 87.0121 70.0777 88.6112 67.3554C86.0668 81.7305 75.6638 93.4235 62.0184 97.8285C67.0629 95.9257 71.5898 92.8642 75.2341 88.8906C78.8784 84.9171 81.5381 80.1427 82.9988 74.9524ZM89.0273 66.6319C91.709 61.8714 93.4893 56.6568 94.2787 51.2501C94.3966 52.5672 94.4607 53.9008 94.4607 55.2492C94.4607 74.9659 81.5611 91.7245 63.7604 97.5314C76.93 92.6225 86.7976 80.8773 89.0273 66.6319ZM99.7092 50C99.7092 72.0004 85.3434 90.7057 65.5025 97.2363C82.5618 90.916 94.7441 74.4795 94.7441 55.2492C94.7474 53.4952 94.6478 51.7424 94.4458 50C94.6478 48.2578 94.7474 46.505 94.7441 44.751C94.7441 25.5207 82.5544 9.08415 65.495 2.76402C85.3478 9.29447 99.7092 27.9998 99.7092 50ZM94.4607 44.751C94.4607 46.0935 94.3966 47.4359 94.2787 48.7501C93.4893 43.3434 91.709 38.1288 89.0273 33.3681C86.7976 19.1229 76.93 7.3777 63.7604 2.46867C81.5611 8.27716 94.4607 25.0343 94.4607 44.751ZM88.6112 32.6447C87.0121 29.9225 85.1309 27.3762 82.9988 25.0477C81.5381 19.8575 78.8784 15.0831 75.2341 11.1095C71.5898 7.13602 67.0629 4.07449 62.0184 2.17184C75.6638 6.57669 86.0668 18.2697 88.6112 32.6447ZM82.5573 24.5734C81.0157 22.9363 79.3535 21.4171 77.5848 20.0284C76.2325 15.9049 73.9766 12.1354 70.9819 8.99505C67.9872 5.85469 64.3293 3.42267 60.2749 1.87649C65.5531 3.56473 70.3407 6.51378 74.2232 10.4685C78.1057 14.4232 80.9662 19.2644 82.5573 24.5734ZM73.4803 17.1629C66.425 12.8012 58.2945 10.4909 50.0002 10.4909C41.7058 10.4909 33.5754 12.8012 26.5201 17.1629C29.8282 7.36278 39.1005 0.284903 50.0002 0.284903C60.8998 0.284904 70.1722 7.36278 73.4803 17.1629ZM22.4081 20.0284C20.6395 21.4171 18.9773 22.9363 17.4356 24.5734C19.0268 19.2644 21.8873 14.4232 25.7698 10.4685C29.6522 6.51378 34.4398 3.56473 39.718 1.87649C35.6637 3.42267 32.0057 5.85468 29.011 8.99505C26.0163 12.1354 23.7605 15.9049 22.4081 20.0284ZM16.9941 25.0477C14.862 27.3761 12.9809 29.9225 11.3818 32.6447C13.9262 18.2697 24.3292 6.57668 37.9745 2.17184C32.9315 4.07546 28.4061 7.13742 24.7631 11.1109C21.1202 15.0844 18.4616 19.8582 17.0016 25.0477L16.9941 25.0477ZM10.9657 33.3681C8.28385 38.1288 6.50363 43.3434 5.71423 48.7501C5.5964 47.4329 5.53224 46.0994 5.53224 44.751C5.53224 25.0343 18.4319 8.27716 36.2325 2.46867C23.0704 7.3777 13.2029 19.1229 10.973 33.3681L10.9657 33.3681ZM0.291187 50C0.291188 27.9998 14.657 9.29447 34.498 2.76402C17.4385 9.08415 5.24882 25.5207 5.24882 44.751C5.24804 46.5052 5.35015 48.2579 5.55456 50C5.34908 51.7422 5.246 53.495 5.24591 55.2492C5.24591 74.4795 17.4356 90.916 34.4949 97.2363C14.6525 90.7057 0.291186 72.0004 0.291187 50ZM5.53971 55.2492C5.53971 53.9067 5.60377 52.5643 5.7216 51.2501C6.51101 56.6568 8.29132 61.8714 10.973 66.6319C13.2028 80.8773 23.0704 92.6225 36.2399 97.5314C18.4393 91.7245 5.53971 74.9658 5.53971 55.2492ZM11.3892 67.3554C12.9883 70.0777 14.8695 72.624 17.0016 74.9524C18.4623 80.1427 21.122 84.9171 24.7663 88.8906C28.4106 92.8642 32.9375 95.9257 37.982 97.8284C24.3366 93.4235 13.9336 81.7305 11.3892 67.3554ZM17.4431 75.4268C18.9823 77.0636 20.642 78.5828 22.4081 79.9718C23.7613 84.0961 26.0182 87.866 29.0142 91.0064C32.0104 94.1468 35.6698 96.5784 39.7255 98.1236C34.4472 96.4354 29.6597 93.4864 25.7772 89.5317C21.8948 85.5769 19.0341 80.7357 17.4431 75.4268ZM26.5201 82.8373C33.5754 87.199 41.7058 89.5093 50.0002 89.5093C58.2945 89.5093 66.425 87.199 73.4803 82.8373C70.1722 92.6374 60.8998 99.7156 50.0002 99.7156C39.1005 99.7156 29.8282 92.6374 26.5201 82.8373Z" fill="#F80000"/>
</g>
<defs>
<clipPath id="clip0">
<rect width="100" height="100" fill="white"/>
</clipPath>
</defs>
</svg>
